# Blender 4.2.1 LTS
# www.blender.org
mtllib 4geoms.mtl
o Cube
v -1.506610 -0.616429 -27.990105
v -1.506610 1.969966 -27.990105
v -1.506610 -0.616429 -30.576500
v -1.506610 1.969966 -30.576500
v 1.079785 -0.616429 -27.990105
v 1.079785 1.969966 -27.990105
v 1.079785 -0.616429 -30.576500
v 1.079785 1.969966 -30.576500
vn -1.0000 -0.0000 -0.0000
vn -0.0000 -0.0000 -1.0000
vn 1.0000 -0.0000 -0.0000
vn -0.0000 -0.0000 1.0000
vn -0.0000 -1.0000 -0.0000
vn -0.0000 1.0000 -0.0000
vt 0.625000 0.000000
vt 0.375000 0.250000
vt 0.375000 0.000000
vt 0.625000 0.250000
vt 0.375000 0.500000
vt 0.625000 0.500000
vt 0.375000 0.750000
vt 0.625000 0.750000
vt 0.375000 1.000000
vt 0.125000 0.750000
vt 0.125000 0.500000
vt 0.875000 0.500000
vt 0.625000 1.000000
vt 0.875000 0.750000
s 0
f 2/1/1 3/2/1 1/3/1
f 4/4/2 7/5/2 3/2/2
f 8/6/3 5/7/3 7/5/3
f 6/8/4 1/9/4 5/7/4
f 7/5/5 1/10/5 3/11/5
f 4/12/6 6/8/6 8/6/6
f 2/1/1 4/4/1 3/2/1
f 4/4/2 8/6/2 7/5/2
f 8/6/3 6/8/3 5/7/3
f 6/8/4 2/13/4 1/9/4
f 7/5/5 5/7/5 1/10/5
f 4/12/6 2/14/6 6/8/6
o Icosphere
v -4.393069 -0.916466 -19.707108
v -3.240205 -0.035750 -18.869513
v -4.833415 -0.035750 -18.351839
v -5.818097 -0.035750 -19.707108
v -4.833415 -0.035750 -21.062376
v -3.240205 -0.035750 -20.544703
v -3.952724 1.389286 -18.351839
v -5.545934 1.389286 -18.869513
v -5.545934 1.389286 -20.544703
v -3.952724 1.389286 -21.062376
v -2.968040 1.389286 -19.707108
v -4.393069 2.270002 -19.707108
vn 0.1876 -0.7947 0.5774
vn 0.6071 -0.7947 -0.0000
vn -0.4911 -0.7947 0.3568
vn -0.4911 -0.7947 -0.3568
vn 0.1876 -0.7947 -0.5774
vn 0.9822 -0.1876 -0.0000
vn 0.3035 -0.1876 0.9342
vn -0.7946 -0.1876 0.5774
vn -0.7946 -0.1876 -0.5774
vn 0.3035 -0.1876 -0.9342
vn 0.7946 0.1876 0.5774
vn -0.3035 0.1876 0.9342
vn -0.9822 0.1876 -0.0000
vn -0.3035 0.1876 -0.9342
vn 0.7946 0.1876 -0.5774
vn 0.4911 0.7947 0.3568
vn -0.1876 0.7947 0.5774
vn -0.6071 0.7947 -0.0000
vn -0.1876 0.7947 -0.5774
vn 0.4911 0.7947 -0.3568
vt 0.181819 0.000000
vt 0.272728 0.157461
vt 0.090910 0.157461
vt 0.363637 0.000000
vt 0.454546 0.157461
vt 0.909091 0.000000
vt 1.000000 0.157461
vt 0.818182 0.157461
vt 0.727273 0.000000
vt 0.636364 0.157461
vt 0.545455 0.000000
vt 0.363637 0.314921
vt 0.181819 0.314921
vt 0.909091 0.314921
vt 0.727273 0.314921
vt 0.545455 0.314921
vt 0.000000 0.314921
vt 0.272728 0.472382
vt 0.090910 0.472382
vt 0.818182 0.472382
vt 0.636364 0.472382
vt 0.454546 0.472382
s 0
f 9/15/7 10/16/7 11/17/7
f 10/16/8 9/18/8 14/19/8
f 9/20/9 11/21/9 12/22/9
f 9/23/10 12/22/10 13/24/10
f 9/25/11 13/24/11 14/19/11
f 10/16/12 14/19/12 19/26/12
f 11/17/13 10/16/13 15/27/13
f 12/22/14 11/21/14 16/28/14
f 13/24/15 12/22/15 17/29/15
f 14/19/16 13/24/16 18/30/16
f 10/16/17 19/26/17 15/27/17
f 11/17/18 15/27/18 16/31/18
f 12/22/19 16/28/19 17/29/19
f 13/24/20 17/29/20 18/30/20
f 14/19/21 18/30/21 19/26/21
f 15/27/22 19/26/22 20/32/22
f 16/31/23 15/27/23 20/33/23
f 17/29/24 16/28/24 20/34/24
f 18/30/25 17/29/25 20/35/25
f 19/26/26 18/30/26 20/36/26
o Cone
v 8.539595 -0.628839 -25.663559
v 9.404370 0.640338 -24.685036
v 7.945651 -0.203868 -23.995392
v 7.384162 1.417659 -25.602348
vn 0.4877 0.2999 -0.8199
vn 0.5924 -0.7047 0.3905
vn -0.0604 0.6920 0.7194
vn -0.8583 -0.4791 -0.1836
vt 0.250000 0.490000
vt 0.250000 0.250000
vt 0.457846 0.130000
vt 0.750000 0.490000
vt 0.957846 0.130000
vt 0.542154 0.130000
vt 0.042154 0.130000
s 0
f 21/37/27 24/38/27 22/39/27
f 21/40/28 22/41/28 23/42/28
f 22/39/29 24/38/29 23/43/29
f 23/43/30 24/38/30 21/37/30
o Torus
v 5.917663 0.676768 -17.063469
v 6.948576 0.648795 -16.945259
v 6.536542 0.704741 -17.896383
v 9.986549 -1.914577 -18.978567
v 9.796797 -1.165146 -18.285828
v 9.384763 -1.109200 -19.236952
v 10.097744 3.268113 -18.721889
v 9.874634 2.462736 -18.106153
v 9.462599 2.518682 -19.057278
vn -0.1010 -0.6890 0.7177
vn 0.4774 0.8648 -0.1559
vn -0.6207 -0.6184 -0.4820
vn 0.9535 -0.0353 0.2993
vn -0.9176 -0.0000 0.3975
vn 0.4338 0.0353 -0.9003
vn -0.0729 0.6184 0.7825
vn 0.4402 -0.8648 -0.2416
vn -0.5926 0.6890 -0.4172
vt 1.000000 0.666667
vt 0.666667 1.000000
vt 0.666667 0.666667
vt 1.000000 0.000000
vt 0.666667 0.333333
vt 0.666667 0.000000
vt 1.000000 0.333333
vt 0.333333 0.666667
vt 0.000000 1.000000
vt 0.000000 0.666667
vt 0.333333 0.000000
vt 0.000000 0.333333
vt 0.000000 0.000000
vt 0.333333 0.333333
vt 0.333333 1.000000
vt 1.000000 1.000000
s 0
f 28/44/31 26/45/31 25/46/31
f 29/47/32 27/48/32 26/49/32
f 30/50/33 25/46/33 27/48/33
f 31/51/34 29/52/34 28/53/34
f 32/54/35 30/55/35 29/56/35
f 33/57/36 28/53/36 30/55/36
f 25/46/37 32/58/37 31/51/37
f 26/49/38 33/57/38 32/54/38
f 27/48/39 31/51/39 33/57/39
f 28/44/31 29/59/31 26/45/31
f 29/47/32 30/50/32 27/48/32
f 30/50/33 28/44/33 25/46/33
f 31/51/34 32/58/34 29/52/34
f 32/54/35 33/57/35 30/55/35
f 33/57/36 31/51/36 28/53/36
f 25/46/37 26/45/37 32/58/37
f 26/49/38 27/48/38 33/57/38
f 27/48/39 25/46/39 31/51/39
o Plane
v -1.000000 0.000000 1.000000
v 1.000000 0.000000 1.000000
v -1.000000 0.000000 -1.000000
v 1.000000 0.000000 -1.000000
vn -0.0000 1.0000 -0.0000
vt 0.000000 0.000000
vt 1.000000 0.000000
vt 1.000000 1.000000
vt 0.000000 1.000000
s 0
f 34/60/40 35/61/40 37/62/40 36/63/40
