# Blender 4.2.1 LTS
# www.blender.org
mtllib cplane.mtl
o Plane
v -2.184323 0.509233 2.146282
v 2.184323 0.509233 2.146282
v -2.184323 -0.302527 -2.146282
v 2.184323 -0.302527 -2.146282
v -2.184323 0.732398 2.104080
v 2.184323 0.732398 2.104080
v -2.184323 -0.079362 -2.188485
v 2.184323 -0.079362 -2.188485
vn -0.0000 -0.9826 0.1858
vn -0.0000 0.9826 -0.1858
vn -0.0000 -0.1858 -0.9826
vn -0.0000 0.1858 0.9826
vn 1.0000 -0.0000 -0.0000
vn -1.0000 -0.0000 -0.0000
vt 1.000000 0.000000
vt 0.000000 0.000000
vt 0.000000 1.000000
vt 1.000000 1.000000
s 0
f 2/1/1 1/2/1 3/3/1
f 2/1/1 3/3/1 4/4/1
f 6/1/2 7/3/2 5/2/2
f 6/1/2 8/4/2 7/3/2
f 3/3/3 8/4/3 4/4/3
f 2/1/4 5/2/4 1/2/4
f 4/4/5 6/1/5 2/1/5
f 1/2/6 7/3/6 3/3/6
f 3/3/3 7/3/3 8/4/3
f 2/1/4 6/1/4 5/2/4
f 4/4/5 8/4/5 6/1/5
f 1/2/6 5/2/6 7/3/6
