# Blender 4.2.1 LTS
# www.blender.org
mtllib rsuzanne.mtl
o Suzanne
v -0.306075 1.903679 -0.585038
v -0.389172 1.818609 -0.792959
v -0.714824 1.854336 0.038236
v 0.605348 1.866371 0.667221
v 0.495558 1.157890 0.471639
v -0.238578 0.512786 -0.631878
v -0.633649 1.215909 -0.170295
v -0.988986 1.842290 0.252277
v -0.777804 2.001639 -0.284356
v -0.103674 1.382301 -0.823041
v -0.011329 1.830756 -1.037142
v -0.454889 2.194779 -0.661855
v -0.640237 1.812550 -0.495725
v -0.689567 1.266217 -0.382550
v -0.549632 1.152029 -0.548939
v -0.615886 0.646495 -0.351900
v -0.505349 0.600556 -0.488628
v -0.214577 1.701690 -0.860798
v -0.319212 1.528593 -0.765735
v -0.837858 1.831260 -0.232819
v -0.736283 1.573112 -0.282916
v -0.805663 1.509951 -0.094690
v -0.878694 1.690626 0.033372
v -0.465086 1.571882 -0.632557
v -0.500515 1.871680 -0.386279
v -0.709544 2.212933 -0.227520
v 0.151560 1.872604 -0.791958
v 0.209647 1.523445 -0.848316
v -0.258407 1.222969 -0.497249
v -0.798149 1.548568 0.383729
v 0.063471 2.405413 -0.386101
v 0.875117 1.843655 -0.393653
v -0.141384 1.030531 -0.377796
v -0.143962 0.492073 -0.471357
v -0.629465 0.455844 -0.016740
v -0.336665 0.992932 -0.044674
v 0.282479 2.372544 0.451740
v 0.739212 2.135045 -0.339143
v -0.403887 2.341743 0.277193
v -0.724292 1.877995 0.349386
v -0.236739 1.918905 0.912037
v 0.664362 1.350685 -0.291640
v -0.304672 1.361372 0.619185
v 1.075724 1.472467 -0.673203
v -0.371121 1.785664 0.800822
v 1.026165 1.870303 -0.686844
v 0.879220 1.742442 -0.565432
v 0.759789 1.486227 -0.463762
v 0.541492 1.369634 -0.478235
v 0.669767 1.804359 -0.559278
v -0.360894 1.805189 1.171949
v -0.356074 1.462261 1.223819
v -0.125805 1.378802 0.780803
vn -0.9068 -0.2991 -0.2971
vn -0.4651 -0.1933 -0.8639
vn -0.6925 -0.2312 -0.6834
vn -0.8952 0.4013 0.1936
vn 0.3564 0.8062 -0.4723
vn -0.6873 0.6805 0.2541
vn 0.2768 -0.9086 -0.3129
vn -0.8310 -0.5552 -0.0341
vn -0.5810 0.3811 -0.7191
vn -0.8684 -0.0858 -0.4884
vn -0.7617 0.0905 -0.6416
vn -0.5370 0.1924 -0.8213
vn -0.9150 -0.1020 -0.3904
vn -0.5233 -0.2770 -0.8059
vn -0.9564 -0.2111 0.2019
vn -0.7876 0.0785 -0.6112
vn -0.4632 -0.8058 -0.3689
vn -0.9864 -0.1227 -0.1098
vn -0.5026 -0.1338 -0.8541
vn -0.7574 0.0226 -0.6525
vn -0.7824 -0.5382 0.3132
vn -0.4001 -0.2434 -0.8836
vn -0.5532 -0.0564 -0.8311
vn 0.3490 0.5625 -0.7495
vn -0.6476 0.5453 0.5322
vn -0.2866 0.8317 0.4755
vn -0.3599 0.1762 0.9162
vn 0.6594 -0.3242 0.6783
vn 0.8636 -0.0903 0.4961
vn 0.8632 0.0824 -0.4981
vn 0.3745 0.9252 -0.0616
vn -0.6568 0.5363 0.5301
vn 0.2950 0.6094 -0.7360
vn 0.8725 0.4126 0.2618
vn 0.4423 0.5450 0.7122
vn -0.7443 0.2260 0.6285
vn 0.4152 0.4421 -0.7951
vn -0.1302 -0.8643 0.4859
vn 0.2647 -0.1760 0.9481
vn -0.7709 -0.2215 -0.5972
vn 0.9219 -0.3714 0.1101
vn -0.5143 -0.4043 0.7563
vn 0.1879 -0.2333 -0.9541
vn -0.2593 -0.3443 -0.9024
vn 0.6360 -0.3187 -0.7028
vn -0.8542 -0.5175 0.0508
vn -0.8905 -0.0802 -0.4478
vn -0.5533 -0.0714 -0.8299
vn -0.1838 0.9830 -0.0053
vn 0.6588 0.1076 0.7446
vn -0.9209 -0.1063 -0.3751
vn -0.4153 0.0131 -0.9096
vn -0.1303 0.9912 -0.0253
vn -0.9630 0.0483 0.2651
vn 0.1270 0.1882 -0.9739
vn -0.8858 -0.4639 0.0155
vn 0.1309 -0.4490 -0.8839
vn -0.9003 0.3576 -0.2481
vn -0.5117 -0.2962 -0.8065
vn -0.4947 -0.0729 -0.8660
vn -0.7492 -0.1833 -0.6365
vn -0.7919 -0.1289 -0.5969
vn -0.7081 -0.6010 -0.3706
vn 0.3788 -0.9137 -0.1470
vn -0.8236 -0.3717 -0.4283
vn -0.5841 -0.6990 -0.4126
vn -0.9390 0.3420 0.0367
vn 0.3662 0.8459 -0.3877
vn 0.7939 0.2234 -0.5656
vn 0.3801 -0.8893 -0.2544
vn -0.0296 -0.9934 -0.1107
vn -0.2581 0.1900 0.9473
vn 0.8060 0.1319 -0.5771
vn 0.7601 0.5955 0.2601
vn 0.3379 -0.2987 0.8925
vn 0.9456 -0.2142 0.2450
vn -0.0586 0.9968 0.0544
vn -0.6349 0.6710 -0.3829
vn 0.2685 0.5172 0.8126
vn -0.1827 0.7954 0.5779
vn 0.1675 -0.8481 -0.5026
vn -0.4616 0.4880 -0.7408
vn -0.7425 0.2320 0.6284
vn 0.4234 0.2126 -0.8806
vn 0.5322 0.3889 -0.7521
vn 0.2516 -0.3954 -0.8834
vn -0.6460 -0.7237 0.2427
vn 0.8905 0.0738 0.4490
vn -0.1821 -0.9356 0.3025
vn -0.5950 -0.3933 0.7009
vn 0.6289 0.0153 0.7773
vn -0.3532 0.7334 -0.5809
vn -0.5806 -0.1000 -0.8080
vn -0.0488 -0.9859 0.1603
vn 0.1223 -0.9761 -0.1797
vn -0.6962 0.7176 -0.0186
vn 0.8630 -0.2823 0.4190
vn -0.7997 -0.1241 -0.5874
vn 0.1930 -0.9812 0.0024
vn 0.8991 0.3781 0.2205
vn -0.8141 0.5232 -0.2521
vn 0.1810 -0.9593 -0.2166
vn -0.4943 -0.7497 0.4399
vn 0.8849 0.0818 0.4585
vt 0.876541 0.592647
vt 0.855497 0.629532
vt 0.781448 0.527061
vt 0.848505 0.875897
vt 0.885339 0.855258
vt 0.966920 0.911934
vt 0.766181 0.817419
vt 0.917660 0.766841
vt 0.890051 0.501986
vt 0.364663 0.238786
vt 0.401984 0.164131
vt 0.481180 0.198122
vt 0.672181 0.318995
vt 0.608310 0.296086
vt 0.697916 0.256778
vt 0.501299 0.357938
vt 0.586825 0.350687
vt 0.597404 0.403247
vt 0.572673 0.304545
vt 0.416352 0.314465
vt 0.406368 0.394036
vt 0.327061 0.317007
vt 0.392523 0.295979
vt 0.521664 0.186010
vt 0.595813 0.168630
vt 0.573207 0.285679
vt 0.428270 0.284310
vt 0.531261 0.065855
vt 0.492983 0.081781
vt 0.470524 0.068472
vt 0.506995 0.086093
vt 0.481006 0.170241
vt 0.500000 0.203867
vt 0.593347 0.281299
vt 0.406653 0.281173
vt 0.587218 0.311956
vt 0.501492 0.428636
vt 0.702593 0.332748
vt 0.748849 0.323249
vt 0.621745 0.074837
vt 0.520125 0.029824
vt 0.380697 0.027237
vt 0.466690 0.056736
vt 0.384926 0.087938
vt 0.145490 0.240294
vt 0.124438 0.353880
vt 0.000140 0.253531
vt 0.855079 0.336210
vt 0.824544 0.208703
vt 0.248979 0.320844
vt 0.802929 0.475819
vt 0.734532 0.447084
vt 0.265611 0.446814
vt 0.206279 0.465018
vt 0.797447 0.204842
vt 0.199606 0.202260
vt 0.846675 0.049571
vt 0.784330 0.178082
vt 0.825762 0.147055
vt 0.952304 0.162574
vt 0.179988 0.189535
vt 0.159908 0.032776
vt 0.195001 0.151137
vt 0.318905 0.903519
vt 0.306082 0.743339
vt 0.323844 0.661976
vt 0.153529 0.848915
vt 0.285094 0.246589
vt 0.214801 0.178280
vt 0.444969 0.747542
vt 0.538708 0.805879
vt 0.418214 0.863717
vt 0.571510 0.725280
vt 0.255119 0.811296
vt 0.187129 0.734549
vt 0.030670 0.553627
vt 0.106907 0.584723
vt 0.073422 0.702082
vt 0.184976 0.594008
vt 0.757430 0.638186
vt 0.986087 0.611927
vt 0.913858 0.712211
vt 0.426658 0.303319
vt 0.262986 0.322234
vt 0.012367 0.154243
vt 0.917611 0.401774
vt 0.961949 0.256608
vt 0.643465 0.585020
vt 0.559167 0.585862
vt 0.437277 0.659730
vt 0.718821 0.547204
vt 0.696296 0.707556
s 0
usemtl SuzanneTexture
f 2/5/4 24/7/4 1/8/4
f 2/5/5 1/8/5 18/6/5
f 23/3/6 3/9/6 20/1/6
f 10/10/7 29/11/7 15/12/7
f 8/13/8 23/14/8 30/15/8
f 13/16/9 9/17/9 26/18/9
f 9/17/10 13/16/10 21/19/10
f 2/20/11 13/16/11 12/21/11
f 11/22/12 2/20/12 12/21/12
f 8/13/13 9/17/13 23/14/13
f 10/10/14 18/23/14 11/22/14
f 14/24/15 7/25/15 21/26/15
f 21/26/16 24/27/16 14/24/16
f 35/28/17 17/29/17 6/30/17
f 14/24/18 16/31/18 35/28/18
f 17/29/19 15/32/19 6/30/19
f 15/12/20 14/33/20 24/27/20
f 7/25/21 23/14/21 22/34/21
f 18/23/22 10/10/22 19/35/22
f 21/19/23 20/36/23 9/17/23
f 13/16/24 26/18/24 25/37/24
f 12/21/25 13/16/25 25/37/25
f 8/13/26 40/38/26 26/18/26
f 30/15/27 40/39/27 8/13/27
f 36/40/28 35/28/28 34/41/28
f 36/42/29 34/43/29 33/44/29
f 34/43/30 6/30/30 33/44/30
f 38/45/31 31/46/31 37/47/31
f 39/48/32 40/39/32 41/49/32
f 27/50/33 31/46/33 38/45/33
f 25/51/34 26/52/34 40/39/34
f 12/53/35 25/54/35 27/50/35
f 45/55/36 41/49/36 40/39/36
f 38/45/37 50/56/37 27/50/37
f 5/57/38 43/58/38 36/40/38
f 53/59/39 4/60/39 41/49/39
f 21/26/40 13/16/40 24/27/40
f 32/61/41 5/62/41 42/63/41
f 30/15/42 43/58/42 45/55/42
f 50/64/43 48/65/43 49/66/43
f 50/64/44 46/67/44 48/65/44
f 28/68/45 50/56/45 49/69/45
f 53/70/46 51/71/46 45/72/46
f 52/73/47 51/71/47 53/70/47
f 47/74/48 44/75/48 48/65/48
f 50/76/49 32/77/49 46/78/49
f 44/75/50 46/78/50 42/79/50
f 23/3/51 21/2/51 22/80/51
f 20/1/52 25/81/52 21/82/52
f 20/1/53 3/9/53 25/81/53
f 7/25/54 14/24/54 35/28/54
f 6/30/55 15/32/55 29/11/55
f 7/25/56 30/15/56 23/14/56
f 11/22/57 28/68/57 10/10/57
f 26/18/58 9/17/58 8/13/58
f 11/22/59 18/23/59 2/20/59
f 15/12/60 24/27/60 10/10/60
f 13/16/61 2/20/61 24/83/61
f 16/31/62 15/32/62 17/29/62
f 16/31/63 17/29/63 35/28/63
f 5/62/64 33/44/64 42/63/64
f 21/26/65 7/25/65 22/34/65
f 19/35/66 10/10/66 24/27/66
f 9/17/67 20/36/67 23/14/67
f 11/22/68 12/21/68 27/84/68
f 28/68/69 11/22/69 27/50/69
f 29/11/70 10/10/70 28/68/70
f 34/43/71 35/28/71 6/30/71
f 7/25/72 35/28/72 36/40/72
f 33/44/73 6/30/73 29/11/73
f 4/85/74 38/45/74 37/47/74
f 4/60/75 53/59/75 5/57/75
f 32/61/76 4/85/76 5/62/76
f 31/86/77 39/48/77 37/87/77
f 25/51/78 39/48/78 31/86/78
f 4/60/79 37/87/79 41/49/79
f 37/87/80 39/48/80 41/49/80
f 49/69/81 29/11/81 28/68/81
f 27/50/82 25/54/82 31/46/82
f 30/15/83 45/55/83 40/39/83
f 27/50/84 50/56/84 28/68/84
f 38/45/85 32/61/85 50/56/85
f 42/63/86 33/44/86 29/11/86
f 36/40/87 30/15/87 7/25/87
f 41/88/88 52/73/88 53/89/88
f 5/57/89 53/59/89 43/58/89
f 45/72/90 43/90/90 53/70/90
f 48/65/91 46/67/91 47/74/91
f 44/75/92 49/66/92 48/65/92
f 47/74/93 46/67/93 44/75/93
f 52/73/94 43/90/94 53/89/94
f 42/79/95 49/66/95 44/75/95
f 45/91/96 51/92/96 41/88/96
f 42/79/97 46/78/97 32/77/97
f 16/31/98 14/24/98 15/32/98
f 5/62/99 36/42/99 33/44/99
f 4/85/100 32/61/100 38/45/100
f 25/51/101 40/39/101 39/48/101
f 49/69/102 42/63/102 29/11/102
f 36/40/103 43/58/103 30/15/103
f 41/88/104 51/92/104 52/73/104
usemtl SuzanneEyes
f 20/1/1 21/2/1 23/3/1
f 19/4/2 2/5/2 18/6/2
f 2/5/3 19/4/3 24/7/3
o Plane
v -2.184323 0.509233 2.146282
v 2.184323 0.509233 2.146282
v -2.184323 -0.302527 -2.146282
v 2.184323 -0.302527 -2.146282
v -2.184323 0.732398 2.104080
v 2.184323 0.732398 2.104080
v -2.184323 -0.079362 -2.188485
v 2.184323 -0.079362 -2.188485
vn -0.0000 -0.9826 0.1858
vn -0.0000 0.9826 -0.1858
vn -0.0000 -0.1858 -0.9826
vn -0.0000 0.1858 0.9826
vn 1.0000 -0.0000 -0.0000
vn -1.0000 -0.0000 -0.0000
vt 1.000000 0.000000
vt 0.000000 0.000000
vt 0.000000 1.000000
vt 1.000000 1.000000
s 0
usemtl Material
f 55/93/105 54/94/105 56/95/105
f 55/93/105 56/95/105 57/96/105
f 59/93/106 60/95/106 58/94/106
f 59/93/106 61/96/106 60/95/106
f 56/95/107 61/96/107 57/96/107
f 55/93/108 58/94/108 54/94/108
f 57/96/109 59/93/109 55/93/109
f 54/94/110 60/95/110 56/95/110
f 56/95/107 60/95/107 61/96/107
f 55/93/108 59/93/108 58/94/108
f 57/96/109 61/96/109 59/93/109
f 54/94/110 58/94/110 60/95/110
