# Blender 4.2.1 LTS
# www.blender.org
mtllib suze.mtl
o Plane
v -6.900997 0.000000 6.900997
v 6.900997 0.000000 6.900997
v -6.900997 0.000000 -6.900997
v 6.900997 0.000000 -6.900997
vn -0.0000 1.0000 -0.0000
vt 0.000000 0.000000
vt 1.000000 0.000000
vt 1.000000 1.000000
vt 0.000000 1.000000
s 0
f 1/1/1 2/2/1 4/3/1 3/4/1
o Suzanne
v -0.484034 1.460916 0.576947
v 0.484034 1.460916 0.576947
v 0.103827 1.600612 0.640278
v -0.100956 1.599720 0.641930
v 0.393837 1.819252 0.790033
v 0.156250 1.878261 0.648438
v -0.278507 1.903679 0.598653
v -0.393098 1.818609 0.791020
v 0.464863 1.854336 0.544369
v -0.556448 1.756689 0.530197
v 0.633369 1.682867 0.566534
v -0.318941 1.555076 0.809523
v 0.320532 1.555133 0.808700
v 0.000000 1.253261 0.796875
v 0.161855 1.866371 -0.886247
v 0.073286 1.157890 -0.680184
v -0.356728 0.512786 0.573527
v 0.249936 1.215909 0.606666
v 0.801472 1.842290 0.631966
v -0.278309 1.844009 0.761608
v 0.246989 2.001639 0.790464
v 0.000000 1.245449 0.750000
v 0.000000 1.300136 0.742188
v -0.590524 1.382301 0.582604
v -0.816663 1.830756 0.639416
v -0.249049 2.194779 0.763512
v -0.004469 1.812550 0.809708
v -0.091305 1.322504 0.792388
v 0.115383 1.266217 0.780086
v -0.101798 1.152029 0.770108
v 0.094934 0.646495 0.702949
v -0.080825 0.600556 0.698286
v -0.412973 1.829293 0.752534
v -0.553093 1.701690 0.693617
v -0.414005 1.528593 0.718920
v 0.198150 1.744861 0.760369
v -0.196071 1.735385 0.761091
v 0.324415 1.831260 0.806824
v 0.222894 1.573112 0.756619
v 0.414528 1.509951 0.697299
v 0.560609 1.690626 0.677448
v -0.219586 1.571882 0.753801
v -0.002492 1.871680 0.632235
v 0.250629 2.212933 0.701714
v -0.720984 1.872604 0.361039
v -0.801044 1.523445 0.349172
v -0.237773 1.222969 0.507440
v 0.789853 1.548568 0.400528
v -0.345166 2.405413 0.184289
v -0.844518 1.843655 -0.455613
v -0.214052 1.030531 0.341908
v -0.286777 0.492073 0.400826
v 0.369324 0.455844 0.510006
v 0.169166 0.992932 0.294486
v 0.187004 2.372544 -0.498892
v -0.718625 2.135045 -0.380830
v 0.465608 2.341743 0.152219
v 0.717688 1.877995 0.362756
v 0.868110 1.918905 -0.366392
v -0.635407 1.350685 -0.350270
v 0.676861 1.361372 -0.134441
v -1.188433 1.472467 -0.444984
v 0.861481 1.785664 -0.192084
v 0.821158 1.485066 -0.320186
v -1.169142 1.870303 -0.397339
v -0.983413 1.742442 -0.354455
v -0.830086 1.486227 -0.321420
v -0.708888 1.369634 -0.139283
v -0.851212 1.804359 -0.191879
v 1.149961 1.805189 -0.425792
v -1.305483 1.907303 -0.505400
v 1.291283 1.907320 -0.467281
v 1.188219 1.462261 -0.461148
v 0.696472 1.378802 -0.374711
vn 0.6385 -0.1235 0.7597
vn -0.8113 -0.1895 0.5531
vn -0.5709 0.2145 0.7925
vn 0.5671 0.2154 0.7950
vn 0.6537 0.4667 0.5958
vn -0.4838 0.8699 0.0965
vn 0.6635 0.6896 0.2903
vn -0.2884 -0.8481 0.4445
vn 0.4781 -0.5552 0.6806
vn -0.2178 0.3811 0.8985
vn 0.1866 -0.1493 0.9710
vn -0.1720 0.0090 0.9851
vn -0.2216 0.0132 0.9750
vn 0.2462 -0.1020 0.9638
vn -0.3218 -0.2770 0.9054
vn 0.7417 -0.2111 0.6367
vn -0.0066 0.0785 0.9969
vn -0.0114 -0.8058 0.5921
vn 0.5124 -0.1227 0.8499
vn -0.3727 -0.1338 0.9183
vn -1.0000 -0.0000 -0.0000
vn 0.4777 0.6670 0.5717
vn -0.3831 -0.3461 0.8564
vn 0.5153 0.3837 0.7663
vn 0.7243 -0.5382 0.4309
vn -0.4584 -0.2434 0.8548
vn 0.0176 0.4031 -0.9150
vn -0.3136 -0.0515 0.9482
vn -0.8073 0.5625 0.1784
vn 0.8162 0.5453 0.1908
vn 0.5518 0.8317 -0.0614
vn 0.9463 0.1762 -0.2711
vn 0.1378 -0.3242 -0.9359
vn -0.1310 -0.0903 -0.9873
vn -0.9202 0.0824 -0.3826
vn -0.2765 0.9252 -0.2599
vn 0.8202 0.5363 0.1993
vn -0.7637 0.6094 0.2131
vn -0.3224 0.4126 -0.8520
vn 0.2967 0.5450 -0.7842
vn 0.9514 0.2260 0.2090
vn -0.8837 0.4421 0.1536
vn 0.4650 -0.8643 -0.1920
vn 0.5920 -0.1760 -0.7865
vn -0.0056 -0.2215 0.9751
vn -0.4730 -0.3714 -0.7990
vn 0.3218 -0.0615 0.9448
vn 0.3026 0.6680 0.6799
vn 0.5612 -0.5125 0.6499
vn 0.9132 -0.4043 -0.0514
vn -0.8718 -0.2333 0.4308
vn -0.5589 -0.3443 0.7544
vn -0.9447 -0.3187 -0.0779
vn 0.5975 -0.3809 0.7057
vn 0.3549 -0.0566 0.9332
vn -0.3227 -0.0714 0.9438
vn 0.1194 0.9816 0.1493
vn 0.1472 -0.0971 -0.9843
vn 0.6570 -0.4124 0.6311
vn -0.7922 -0.0987 0.6023
vn -0.3176 -0.9353 0.1561
vn 0.3127 -0.9367 0.1572
vn -0.4981 0.0686 0.8644
vn 0.1357 0.9746 0.1784
vn 0.7959 0.0483 0.6035
vn -0.8505 0.1882 0.4911
vn 0.5507 -0.4639 0.6939
vn -0.7815 -0.4490 0.4333
vn 0.3502 0.3576 0.8657
vn -0.2202 -0.0404 0.9746
vn -0.3928 -0.0601 0.9177
vn -0.1874 -0.1465 0.9713
vn 0.0074 -0.1289 0.9916
vn -0.2428 -0.0083 0.9700
vn 0.1362 -0.6010 0.7876
vn -0.3470 -0.9137 -0.2114
vn 0.0094 0.7592 0.6508
vn -0.1167 -0.2167 -0.9692
vn 0.0233 -0.1310 0.9911
vn -0.8886 -0.0052 0.4586
vn 0.1605 -0.3717 0.9144
vn 0.0274 -0.6990 0.7146
vn 0.5999 0.3420 0.7233
vn -0.5304 0.8459 -0.0551
vn -0.9316 0.2234 -0.2866
vn -0.4330 -0.8893 -0.1472
vn -0.0700 -0.9934 0.0908
vn 0.9090 0.1900 -0.3709
vn -0.9481 0.1319 -0.2892
vn -0.2555 0.5955 -0.7616
vn 0.5033 -0.2987 -0.8108
vn -0.3802 -0.2142 -0.8998
vn 0.0788 0.9968 0.0134
vn 0.0818 0.6710 0.7369
vn 0.4821 0.5172 -0.7072
vn 0.5699 0.7954 -0.2062
vn -0.5009 -0.8481 0.1726
vn -0.3077 0.4880 0.8168
vn 0.9503 0.2320 0.2077
vn -0.9566 0.2126 0.1991
vn -0.9206 0.3889 0.0346
vn -0.8544 -0.3954 0.3372
vn 0.5854 -0.7237 0.3654
vn -0.1848 0.0738 -0.9800
vn 0.3509 -0.9356 -0.0392
vn -0.6302 -0.0621 0.7739
vn 0.8397 -0.3043 0.4497
vn 0.2349 0.0153 -0.9719
vn -0.2466 0.7334 0.6335
vn -0.2887 -0.1000 0.9522
vn 0.1570 -0.9859 -0.0587
vn -0.2170 -0.9761 0.0121
vn -0.0686 0.9141 0.3996
vn 0.1651 0.7805 0.6029
vn 0.0818 -0.1750 -0.9812
vn 0.2408 0.0135 0.9705
vn 0.0197 -0.1241 0.9921
vn -0.1154 -0.9812 -0.1547
vn -0.3714 0.3781 -0.8480
vn 0.2946 0.5232 0.7997
vn -0.2821 -0.9593 -0.0121
vn 0.6498 -0.7497 0.1251
vn -0.2307 0.0400 -0.9722
vt 0.876541 0.592647
vt 0.855497 0.629532
vt 0.781448 0.527061
vt 0.848505 0.875897
vt 0.885339 0.855258
vt 0.966920 0.911934
vt 0.913858 0.712211
vt 0.766181 0.817419
vt 0.917660 0.766841
vt 0.890051 0.501986
vt 0.364663 0.238786
vt 0.401984 0.164131
vt 0.481180 0.198122
vt 0.672181 0.318995
vt 0.608310 0.296086
vt 0.697916 0.256778
vt 0.501299 0.357938
vt 0.586825 0.350687
vt 0.597404 0.403247
vt 0.572673 0.304545
vt 0.416352 0.314465
vt 0.406368 0.394036
vt 0.327061 0.317007
vt 0.392523 0.295979
vt 0.521664 0.186010
vt 0.595813 0.168630
vt 0.573207 0.285679
vt 0.428270 0.284310
vt 0.531261 0.065855
vt 0.492983 0.081781
vt 0.470524 0.068472
vt 0.506995 0.086093
vt 0.481006 0.170241
vt 0.500000 0.192167
vt 0.500000 0.203867
vt 0.500000 0.197278
vt 0.593347 0.281299
vt 0.406653 0.281173
vt 0.403546 0.309479
vt 0.587218 0.311956
vt 0.501492 0.428636
vt 0.702593 0.332748
vt 0.748849 0.323249
vt 0.621745 0.074837
vt 0.520125 0.029824
vt 0.380697 0.027237
vt 0.466690 0.056736
vt 0.384926 0.087938
vt 0.145490 0.240294
vt 0.124438 0.353880
vt 0.000140 0.253531
vt 0.855079 0.336210
vt 0.824544 0.208703
vt 0.248979 0.320844
vt 0.802929 0.475819
vt 0.734532 0.447084
vt 0.265611 0.446814
vt 0.206279 0.465018
vt 0.797447 0.204842
vt 0.199606 0.202260
vt 0.846675 0.049571
vt 0.784330 0.178082
vt 0.825762 0.147055
vt 0.952304 0.162574
vt 0.179988 0.189535
vt 0.159908 0.032776
vt 0.195001 0.151137
vt 0.538708 0.805879
vt 0.571510 0.725280
vt 0.696296 0.707556
vt 0.444969 0.747542
vt 0.437277 0.659730
vt 0.674150 0.815538
vt 0.418214 0.863717
vt 0.318905 0.903519
vt 0.306082 0.743339
vt 0.323844 0.661976
vt 0.153529 0.848915
vt 0.285094 0.246589
vt 0.214801 0.178280
vt 0.255119 0.811296
vt 0.187129 0.734549
vt 0.030670 0.553627
vt 0.106907 0.584723
vt 0.073422 0.702082
vt 0.184976 0.594008
vt 0.757430 0.638186
vt 0.840055 0.974229
vt 0.986087 0.611927
vt 0.426658 0.303319
vt 0.262986 0.322234
vt 0.012367 0.154243
vt 0.917611 0.401774
vt 0.961949 0.256608
vt 0.643465 0.585020
vt 0.559167 0.585862
vt 0.023095 0.698475
vt 0.718821 0.547204
s 0
f 9/5/2 17/6/2 15/7/2
f 16/8/3 12/9/3 14/10/3
f 17/6/4 9/5/4 7/11/4
f 12/9/5 16/8/5 8/12/5
f 12/9/6 8/12/6 11/13/6
f 12/9/7 11/13/7 14/10/7
f 15/7/8 13/14/8 9/5/8
f 28/15/9 51/16/9 32/17/9
f 23/18/10 45/19/10 52/20/10
f 31/21/11 25/22/11 48/23/11
f 25/22/12 31/21/12 40/24/12
f 24/25/13 31/21/13 30/26/13
f 29/27/14 24/25/14 30/26/14
f 23/18/15 25/22/15 45/19/15
f 28/15/16 38/28/16 29/27/16
f 33/29/17 22/30/17 43/31/17
f 43/31/18 46/32/18 33/29/18
f 57/33/19 36/34/19 21/35/19
f 33/29/20 35/36/20 57/33/20
f 36/34/21 34/37/21 21/35/21
f 18/38/22 27/39/22 26/40/22
f 18/38/23 27/39/23 32/17/23
f 27/39/24 33/29/24 46/32/24
f 32/17/25 27/39/25 46/32/25
f 22/30/26 45/19/26 44/41/26
f 38/28/27 28/15/27 39/42/27
f 24/25/28 38/28/28 37/43/28
f 40/24/29 42/44/29 25/22/29
f 31/21/30 48/23/30 47/45/30
f 30/26/31 31/21/31 47/45/31
f 23/18/32 62/46/32 48/23/32
f 52/20/33 62/47/33 23/18/33
f 58/48/34 57/33/34 56/49/34
f 58/50/35 56/51/35 55/52/35
f 56/51/36 21/35/36 55/52/36
f 60/53/37 53/54/37 59/55/37
f 61/56/38 62/47/38 63/57/38
f 49/58/39 53/54/39 60/53/39
f 47/59/40 48/60/40 62/47/40
f 30/61/41 47/62/41 49/58/41
f 67/63/42 63/57/42 62/47/42
f 60/53/43 73/64/43 49/58/43
f 20/65/44 65/66/44 58/48/44
f 78/67/45 19/68/45 63/57/45
f 43/31/46 31/21/46 46/32/46
f 54/69/47 20/70/47 64/71/47
f 74/72/48 77/73/48 76/74/48
f 77/73/49 68/75/49 65/76/49
f 74/72/50 76/77/50 67/78/50
f 52/20/51 65/66/51 67/63/51
f 73/79/52 71/80/52 72/81/52
f 73/79/53 69/82/53 71/80/53
f 50/83/54 73/64/54 72/84/54
f 68/75/55 74/72/55 67/78/55
f 77/73/56 74/72/56 68/75/56
f 70/85/57 66/86/57 71/80/57
f 73/87/58 54/88/58 75/89/58
f 66/86/59 75/89/59 64/90/59
f 15/7/60 17/6/60 6/91/60
f 5/92/61 16/8/61 14/10/61
f 6/91/62 17/6/62 7/11/62
f 8/12/63 16/8/63 5/92/63
f 9/5/64 10/93/64 7/11/64
f 9/5/65 13/14/65 10/93/65
f 22/30/66 33/29/66 57/33/66
f 21/35/67 34/37/67 51/16/67
f 22/30/68 52/20/68 45/19/68
f 29/27/69 50/83/69 28/15/69
f 48/23/70 25/22/70 23/18/70
f 29/27/71 38/28/71 24/25/71
f 32/17/72 46/32/72 28/15/72
f 31/21/73 24/25/73 41/94/73
f 35/36/74 34/37/74 36/34/74
f 46/32/75 31/21/75 41/94/75
f 35/36/76 36/34/76 57/33/76
f 20/70/77 55/52/77 64/71/77
f 18/38/78 33/29/78 27/39/78
f 32/17/79 33/29/79 18/38/79
f 34/37/80 33/29/80 32/17/80
f 34/37/81 32/17/81 51/16/81
f 43/31/82 22/30/82 44/41/82
f 39/42/83 28/15/83 46/32/83
f 25/22/84 42/44/84 45/19/84
f 29/27/85 30/26/85 49/95/85
f 50/83/86 29/27/86 49/58/86
f 51/16/87 28/15/87 50/83/87
f 56/51/88 57/33/88 21/35/88
f 22/30/89 57/33/89 58/48/89
f 55/52/90 21/35/90 51/16/90
f 19/96/91 60/53/91 59/55/91
f 19/68/92 78/67/92 20/65/92
f 54/69/93 19/96/93 20/70/93
f 53/97/94 61/56/94 59/98/94
f 47/59/95 61/56/95 53/97/95
f 19/68/96 59/98/96 63/57/96
f 59/98/97 61/56/97 63/57/97
f 72/84/98 51/16/98 50/83/98
f 49/58/99 47/62/99 53/54/99
f 52/20/100 67/63/100 62/47/100
f 49/58/101 73/64/101 50/83/101
f 60/53/102 54/69/102 73/64/102
f 64/71/103 55/52/103 51/16/103
f 58/48/104 52/20/104 22/30/104
f 63/99/105 77/73/105 78/100/105
f 20/65/106 78/67/106 65/66/106
f 69/82/107 75/89/107 66/86/107
f 67/78/108 65/76/108 68/75/108
f 71/80/109 69/82/109 70/85/109
f 66/86/110 72/81/110 71/80/110
f 70/85/111 69/82/111 66/86/111
f 77/73/112 65/76/112 78/100/112
f 64/90/113 72/81/113 66/86/113
f 69/101/114 73/87/114 75/89/114
f 67/102/115 76/74/115 63/99/115
f 64/90/116 75/89/116 54/88/116
f 43/31/117 40/24/117 31/21/117
f 35/36/118 33/29/118 34/37/118
f 20/70/119 58/50/119 55/52/119
f 19/96/120 54/69/120 60/53/120
f 47/59/121 62/47/121 61/56/121
f 72/84/122 64/71/122 51/16/122
f 58/48/123 65/66/123 52/20/123
f 63/99/124 76/74/124 77/73/124
